# xmcd CD database file
#
# Track frame offsets:
#	150
#	8400
#	25800
#	46950
#	65250
#	88875
#	105075
#	125775
#	143625
#
# Disc length: 2149 seconds
#
# Revision: 0
# Processed by: cddbd v1.5.2PL0 Copyright (c) Steve Scherf et al.
# Submitted via: CDex 1.70beta2
#
DISCID=68086309
DTITLE=Pizuya's Cell x MyonMyon - Prunus Subhirtella
DYEAR=2008
DGENRE=東方アレンジ
TTITLE0=Granulated sugar snow [クリスタライズシルバー]
TTITLE1=Awaking Bugs that Cold Dislike [幻視の夜　～ Ghostly Eyes]
TTITLE2=Ensemble for Phantom Aeropolis [天空の花の都/幽霊楽団　～ Phantom Ensemble]
TTITLE3=Back to the Colorful Road [春色小径　～ Colorful Path]
TTITLE4=Prunus Subhirtella [幽雅に咲かせ、墨染の桜　～ Border of Life]
TTITLE5=From here to sixty years [六十年目の東方裁判　～ Fate of Sixty Years]
TTITLE6=Another Night or Petal [妖々夢　～ Snow or Cherry Petal]
TTITLE7=HλLF-LIFE [東方妖々夢　～ Ancient Temple]
TTITLE8=Cherry+Dance=Can Cyder Her [さくらさくら　～ Japanize Dream...]
EXTD=YEAR: 2008
EXTT0=
EXTT1=
EXTT2=
EXTT3=
EXTT4=
EXTT5=
EXTT6=
EXTT7=
EXTT8=
PLAYORDER=
